<?xml version="1.0" standalone="no"?>
<!DOCTYPE svg PUBLIC "-//W3C//DTD SVG 20010904//EN"
 "http://www.w3.org/TR/2001/REC-SVG-20010904/DTD/svg10.dtd">
<svg version="1.0" xmlns="http://www.w3.org/2000/svg"
 width="901.000000pt" height="896.000000pt" viewBox="0 0 901.000000 896.000000"
 preserveAspectRatio="xMidYMid meet">
<metadata>
Created by potrace 1.16, written by Peter Selinger 2001-2019
</metadata>
<g transform="translate(0.000000,896.000000) scale(0.100000,-0.100000)"
fill="#000000" stroke="none">
<path d="M4503 8566 c-29 -24 -30 -28 -37 -138 -3 -62 -11 -169 -16 -238 -5
-69 -10 -172 -10 -230 0 -58 -11 -231 -25 -385 -49 -554 -57 -703 -62 -1110
-4 -336 -2 -438 11 -565 14 -134 73 -465 91 -511 5 -13 -15 -24 -97 -54 -57
-20 -172 -73 -256 -116 -85 -43 -162 -79 -172 -79 -24 0 -230 58 -465 132
-104 33 -269 80 -365 104 -186 49 -455 127 -505 149 -16 7 -64 25 -105 40
-186 70 -648 291 -969 464 -263 143 -336 183 -351 195 -8 7 -44 29 -80 48 -36
20 -98 54 -138 76 -141 79 -229 105 -271 82 -20 -10 -15 -22 108 -251 79 -149
177 -375 357 -828 291 -729 478 -1119 663 -1378 23 -31 39 -58 37 -60 -2 -2
-15 1 -30 7 -42 15 -22 -7 29 -33 25 -13 77 -60 128 -117 47 -52 108 -113 136
-135 l52 -40 -28 -6 c-15 -4 -63 -7 -105 -8 -45 0 -78 -5 -78 -11 0 -5 8 -10
18 -10 9 0 76 -7 147 -15 128 -14 131 -15 258 -78 l128 -64 -100 -41 c-54 -23
-138 -51 -185 -64 -48 -12 -83 -25 -78 -30 16 -16 353 57 421 91 13 6 207 -24
219 -34 2 -2 -37 -95 -43 -102 -1 -2 -57 -12 -126 -24 -139 -23 -429 -95 -443
-110 -15 -14 0 -12 145 26 100 25 388 85 413 85 1 0 -10 -48 -26 -107 -27
-105 -37 -210 -19 -199 5 3 12 18 16 33 7 31 108 238 128 265 7 9 33 19 59 23
l45 7 8 -57 c11 -94 61 -285 106 -406 76 -209 200 -431 345 -621 l36 -48 -34
0 c-34 0 -67 -14 -57 -24 3 -3 33 -9 68 -12 l61 -7 45 -67 c25 -37 45 -76 45
-87 0 -10 5 -24 11 -30 16 -16 13 -101 -6 -142 l-16 -36 -80 4 c-83 3 -169 -5
-169 -17 0 -4 54 -5 121 -3 l120 3 -30 -61 c-38 -74 -61 -166 -61 -243 l0 -57
-42 -11 c-99 -25 -242 -74 -225 -78 9 -2 45 6 80 17 59 19 178 51 191 51 3 0
6 -8 6 -17 1 -60 84 -176 166 -230 30 -20 53 -37 52 -39 -2 -1 -68 -42 -148
-89 -150 -90 -185 -115 -161 -115 7 0 59 29 114 63 56 35 129 79 162 97 l60
33 112 -51 c201 -91 345 -131 678 -186 377 -64 702 -135 770 -169 54 -27 166
-67 188 -67 38 0 234 103 387 204 30 20 60 36 66 36 6 0 37 21 70 47 33 27
106 79 164 118 58 38 175 119 260 180 85 62 256 179 380 262 301 201 453 316
558 421 124 125 158 176 208 310 30 80 39 147 37 277 -2 124 -27 214 -125 450
-39 94 -77 195 -85 225 -41 175 -130 547 -179 750 -69 288 -146 526 -219 679
-37 75 -65 152 -80 219 -51 212 -224 700 -357 1001 -74 170 -259 548 -330 675
-429 775 -976 1514 -1558 2109 l-106 109 -31 -26z m119 -249 c54 -105 188
-343 299 -527 406 -675 719 -1301 843 -1685 54 -164 110 -432 142 -670 l6 -50
-53 51 c-173 167 -508 370 -713 433 -98 30 -123 27 -61 -7 159 -89 365 -257
466 -384 l29 -36 -132 60 c-232 105 -441 163 -628 174 l-85 6 95 -35 c300
-108 479 -201 634 -331 29 -24 25 -23 -102 14 -165 49 -305 70 -463 70 -112 0
-293 -20 -307 -34 -3 -3 26 -6 64 -6 175 0 353 -40 509 -114 l90 -42 -140 -7
c-158 -7 -290 -28 -414 -64 -46 -13 -87 -20 -92 -16 -14 15 -79 201 -104 299
-32 122 -69 322 -87 469 -17 143 -17 898 0 1155 38 564 62 962 72 1175 11 241
16 295 28 295 4 0 51 -87 104 -193z m-3678 -2167 c109 -123 221 -268 381 -495
299 -423 460 -620 715 -875 195 -195 323 -302 517 -433 l118 -79 -75 7 c-101
9 -197 30 -283 60 -118 42 -114 41 -97 21 24 -30 128 -96 204 -131 79 -36 283
-104 318 -106 48 -3 -36 -17 -107 -18 -38 -1 -88 -6 -110 -11 -57 -13 -239 5
-358 36 -54 15 -100 24 -103 21 -6 -6 73 -64 137 -101 91 -52 245 -94 359 -97
59 -2 105 -23 271 -126 151 -93 421 -295 445 -334 3 -6 -45 30 -107 81 -180
145 -513 360 -558 360 -10 0 -62 -10 -117 -21 -83 -18 -134 -22 -314 -23 -118
0 -226 3 -240 6 -18 5 -49 43 -106 130 -189 286 -328 570 -625 1280 -174 416
-357 820 -445 984 -24 44 -44 85 -44 90 0 13 111 -98 224 -226z m4005 -1081
c64 -6 119 -14 124 -18 4 -4 -25 -17 -63 -30 -83 -26 -156 -59 -227 -100 -39
-23 -53 -27 -61 -18 -18 23 -82 144 -82 155 0 10 32 14 154 20 22 1 92 -3 155
-9z m179 -206 l104 -6 -89 -42 c-49 -23 -115 -59 -146 -79 -32 -20 -62 -35
-68 -33 -21 4 -140 120 -132 128 9 9 144 33 196 36 18 0 78 -1 135 -4z m222
-204 c-31 -16 -76 -47 -100 -69 -25 -22 -51 -40 -57 -40 -16 0 -163 82 -163
91 0 15 201 45 315 47 l60 1 -55 -30z m-3235 -851 c79 -16 139 -21 290 -22
105 0 217 2 250 6 56 7 59 7 40 -8 -60 -46 -347 -158 -458 -178 -35 -7 -41 -4
-94 46 -67 63 -142 142 -162 170 -14 20 -13 21 10 14 13 -4 69 -16 124 -28z
m736 -169 c-30 -28 -85 -73 -123 -99 -74 -52 -73 -55 11 -66 41 -5 56 -3 86
16 40 24 56 20 37 -10 -19 -31 -15 -35 51 -49 34 -8 57 -15 50 -18 -6 -2 -36
2 -67 11 l-56 14 -26 -44 c-14 -24 -33 -44 -42 -44 -10 0 -46 8 -82 19 l-65
18 69 35 69 35 -62 12 c-61 12 -62 12 -120 -20 l-59 -33 -44 19 c-47 20 -189
97 -185 101 1 1 47 7 102 14 122 14 290 57 410 104 50 19 92 35 95 35 3 0 -19
-23 -49 -50z m1070 -586 c62 -84 223 -265 389 -438 171 -178 203 -228 203
-319 0 -78 -18 -113 -98 -196 -67 -70 -156 -183 -181 -231 -15 -29 -14 -29 5
-17 18 11 23 10 36 -8 20 -30 63 -48 198 -84 147 -39 149 -38 259 81 101 111
150 179 143 199 -4 8 33 -24 82 -71 129 -126 250 -201 423 -264 121 -43 198
-26 241 55 l19 35 0 -40 c0 -68 -18 -115 -43 -116 -19 0 -19 -1 -4 -7 43 -18
-107 -175 -191 -200 -20 -6 -113 -21 -207 -32 -299 -37 -387 -59 -554 -139
-171 -82 -219 -96 -308 -88 -101 10 -181 72 -214 169 l-18 53 47 6 47 6 -49 1
-49 2 5 86 c3 59 9 88 19 95 9 5 10 9 2 9 -8 0 -9 9 -2 32 16 57 1 41 -17 -19
-13 -41 -19 -89 -19 -163 0 -92 3 -112 26 -161 l26 -56 -155 -74 c-85 -41
-159 -76 -165 -78 -11 -4 -4 242 8 271 6 14 0 16 -37 12 l-43 -3 38 8 c20 4
40 11 43 14 3 3 19 41 34 84 15 43 36 97 48 119 l21 41 -47 7 c-26 4 -107 13
-181 21 -73 8 -136 17 -139 20 -3 3 1 5 9 5 23 0 280 -28 324 -35 l41 -7 37
59 c20 32 100 123 178 203 165 168 213 226 245 295 50 107 35 137 -204 407
-46 51 -105 125 -131 163 -47 67 -198 345 -188 345 2 0 24 -26 48 -57z m2205
-28 c-38 -123 -155 -252 -291 -317 -98 -47 -132 -50 -192 -19 -70 35 -146 143
-130 185 3 7 31 18 63 25 33 8 64 15 69 17 6 2 20 -15 33 -39 12 -24 37 -52
55 -62 40 -24 129 -25 173 -2 63 33 112 118 101 176 -6 26 -2 29 56 53 34 14
65 26 69 27 4 0 1 -19 -6 -44z m-657 -210 c27 -52 105 -131 152 -156 l33 -17
-40 -5 c-102 -16 -157 -17 -259 -7 -60 5 -143 13 -183 17 -40 3 -75 9 -77 13
-8 14 34 57 92 96 55 37 211 103 243 104 8 0 26 -20 39 -45z m1696 -245 c66
-286 49 -605 -45 -848 -32 -82 -32 -83 -128 -156 -53 -40 -245 -173 -427 -296
-181 -123 -348 -238 -370 -255 -95 -75 -607 -407 -663 -430 -91 -37 -126 -33
-285 30 -172 68 -318 105 -594 150 -417 68 -469 77 -583 106 -63 16 -140 38
-170 49 -51 19 -57 24 -68 63 -23 85 -32 74 148 164 l165 82 30 -31 c58 -60
152 -86 245 -68 56 10 103 32 291 133 126 68 207 88 447 113 l162 16 50 -46
c27 -25 56 -46 64 -46 13 0 36 73 36 115 0 8 15 22 33 31 57 29 101 71 132
123 25 43 35 51 60 51 47 0 266 -36 424 -69 79 -17 146 -29 148 -27 5 4 -13 9
-164 42 -65 14 -188 36 -273 48 -140 21 -155 25 -152 42 2 10 4 54 4 96 0 76
1 77 30 87 27 10 41 5 122 -34 133 -66 224 -87 376 -88 144 -1 217 14 325 67
189 93 395 366 489 648 38 112 76 283 77 345 0 34 2 31 20 -32 11 -38 30 -117
44 -175z m-3185 -143 c0 -7 11 -42 25 -77 44 -112 152 -196 218 -171 36 14 61
71 52 118 -5 28 -4 33 8 26 33 -19 77 -63 77 -76 0 -14 -113 -93 -187 -131
-44 -22 -61 -20 -131 15 -70 35 -129 99 -167 181 -39 85 -37 100 10 114 54 17
95 17 95 1z m-46 -262 c34 -34 76 -67 94 -74 18 -7 32 -17 32 -21 0 -15 -103
-33 -159 -27 -96 8 -173 60 -205 139 -28 67 -22 92 39 156 l56 57 41 -85 c30
-62 58 -101 102 -145z"/>
</g>
</svg>
